<svg id="Capa_1" enable-background="new 0 0 512 512" height="512" viewBox="0 0 512 512" width="512" xmlns="http://www.w3.org/2000/svg" xmlns:xlink="http://www.w3.org/1999/xlink"><linearGradient id="SVGID_1_" gradientUnits="userSpaceOnUse" x1="-107" x2="724.007" y1="257.859" y2="257.859"><stop offset="0" stop-color="#d2deff" stop-opacity="0"/><stop offset="1" stop-color="#b7c5ff"/></linearGradient><g><path d="m512 257.859c0-27.631-12.504-53.534-34.347-75.837-15.199-15.519-27.854-33.295-37.513-52.751-30.889-62.217-83.554-103.196-143.336-103.196-42.483 0-81.369 20.698-111.403 55.003-19.88 22.707-44.981 40.125-72.987 51.371-67.839 27.242-112.414 73.243-112.414 125.41s44.575 98.168 112.414 125.41c28.006 11.246 53.107 28.664 72.988 51.371 30.034 34.305 68.919 55.003 111.403 55.003 59.782 0 112.447-40.979 143.336-103.196 9.659-19.456 22.314-37.232 37.513-52.751 21.842-22.303 34.346-48.206 34.346-75.837z" fill="url(#SVGID_1_)"/><g><g><path d="m359.06 54.36h-206.12c-11.51 0-20.84 9.33-20.84 20.83v131.71h-48.1c-2.76 0-5 2.24-5 5v63.82c0 2.77 2.24 5 5 5h48.1v186.81c0 11.5 9.33 20.83 20.84 20.83h206.12c11.51 0 20.84-9.33 20.84-20.83v-392.34c0-11.5-9.33-20.83-20.84-20.83z" fill="#00c" opacity=".1"/><path d="m379.9 48.19v392.34c0 11.5-9.33 20.83-20.84 20.83h-206.12c-11.51 0-20.84-9.33-20.84-20.83v-392.34c0-11.5 9.33-20.83 20.84-20.83h206.12c11.51 0 20.84 9.33 20.84 20.83z" fill="#fff"/><path d="m246.68 151.541h-78.57c-6.951 0-12.585-5.635-12.585-12.585v-78.57c0-6.951 5.635-12.585 12.585-12.585h78.57c6.951 0 12.585 5.635 12.585 12.585v78.57c0 6.951-5.635 12.585-12.585 12.585z" fill="#6583fe"/><g><g fill="#fff"><circle cx="185.528" cy="76.231" r="18.506"/><circle cx="185.528" cy="123.111" r="18.506"/></g><g><circle cx="229.262" cy="76.231" fill="#fff" r="18.506"/></g><g><circle cx="229.262" cy="76.231" fill="#6583fe" r="9.707"/></g><g><circle cx="185.528" cy="76.231" fill="#6583fe" r="9.707"/></g><g><ellipse cx="185.528" cy="123.111" fill="#6583fe" rx="9.707" ry="9.707" transform="matrix(.15 -.989 .989 .15 35.999 288.09)"/></g></g><g><g><g><path d="m248.228 430.105h-4.968c-6.252 0-11.338-5.086-11.338-11.338v-15.333c0-6.252 5.086-11.338 11.338-11.338h4.968c6.252 0 11.338 5.086 11.338 11.338v15.333c0 6.252-5.086 11.338-11.338 11.338zm-4.968-28.01c-.738 0-1.338.601-1.338 1.338v15.333c0 .738.6 1.338 1.338 1.338h4.968c.738 0 1.338-.601 1.338-1.338v-15.333c0-.738-.601-1.338-1.338-1.338z" fill="#00c"/></g><g><path d="m275.078 430.105c-2.762 0-5-2.239-5-5v-23.01h-.073c-2.762 0-5-2.239-5-5s2.238-5 5-5h5.073c2.762 0 5 2.239 5 5v28.01c0 2.761-2.238 5-5 5z" fill="#00c"/></g></g><g><path d="m319.601 364.116h-127.202c-2.573 0-4.659-2.086-4.659-4.659s2.086-4.659 4.659-4.659h127.202c2.573 0 4.659 2.086 4.659 4.659s-2.086 4.659-4.659 4.659z" fill="#00c"/></g><g><path d="m291.648 382.003h-71.297c-2.573 0-4.659-2.086-4.659-4.659s2.086-4.659 4.659-4.659h71.297c2.573 0 4.659 2.086 4.659 4.659s-2.085 4.659-4.659 4.659z" fill="#00c"/></g></g><g><g><g><path d="m354.772 62.398c-2.762 0-5-2.239-5-5v-.115c0-2.761 2.238-5 5-5s5 2.239 5 5v.115c0 2.761-2.238 5-5 5z" fill="#00c"/></g><g><path d="m354.772 436.437c-2.762 0-5-2.239-5-5v-.115c0-2.761 2.238-5 5-5s5 2.239 5 5v.115c0 2.761-2.238 5-5 5z" fill="#00c"/></g></g><g><g><path d="m157.228 436.437c-2.762 0-5-2.239-5-5v-.115c0-2.761 2.238-5 5-5s5 2.239 5 5v.115c0 2.761-2.238 5-5 5z" fill="#00c"/></g></g></g><path d="m171.67 184.9v63.82c0 2.77-2.24 5-5 5h-82.67c-2.76 0-5-2.23-5-5v-63.82c0-2.76 2.24-5 5-5h82.67c2.76 0 5 2.24 5 5z" fill="#fff"/><ellipse cx="136.667" cy="219.193" fill="#6583fe" rx="17.167" ry="17.167" transform="matrix(.269 -.963 .963 .269 -111.194 291.913)"/><path d="m171.67 234.83v13.89c0 2.77-2.24 5-5 5h-82.67c-2.76 0-5-2.23-5-5v-11.07c12.9-7.94 30.04-12.79 48.85-12.79 16.46 0 31.64 3.71 43.82 9.97z" fill="#6583fe"/><g fill="#00c"><path d="m359.064 22.358h-41.064c-2.762 0-5 2.239-5 5s2.238 5 5 5h41.064c8.731 0 15.835 7.104 15.835 15.836v392.333c0 8.732-7.104 15.835-15.835 15.835h-206.127c-8.732 0-15.836-7.104-15.836-15.835v-152.807c0-2.761-2.239-5-5-5s-5 2.239-5 5v152.806c0 14.246 11.59 25.835 25.836 25.835h206.127c14.245 0 25.835-11.59 25.835-25.835v-392.333c-.001-14.246-11.59-25.835-25.835-25.835z"/><path d="m176.666 248.723v-26.909h52.595c2.761 0 5-2.239 5-5v-135.954c0-2.761-2.239-5-5-5s-5 2.239-5 5v130.955h-47.595v-26.91c0-5.514-4.486-10-10-10h-29.565v-126.712c0-8.732 7.104-15.836 15.836-15.836h131.063c2.762 0 5-2.239 5-5s-2.238-5-5-5h-131.063c-14.246 0-25.836 11.59-25.836 25.836v126.711h-43.101c-5.514 0-10 4.486-10 10v63.819c0 5.514 4.486 10 10 10h82.666c5.515 0 10-4.485 10-10zm-92.666-63.818h82.666l.006 63.818h-82.673v-63.818z"/></g></g><g><path d="m85.716 116.736c-1.28 0-2.559-.488-3.536-1.464l-11-11c-1.953-1.953-1.953-5.119 0-7.071l11-11c1.953-1.952 5.118-1.952 7.071 0l11 11c1.953 1.953 1.953 5.119 0 7.071l-11 11c-.976.976-2.255 1.464-3.535 1.464zm-3.929-16 3.929 3.929 3.929-3.929-3.929-3.929z" fill="#6583fe"/></g><g><path d="m434.94 396.456c-1.279 0-2.56-.488-3.535-1.464l-11-11c-1.953-1.953-1.953-5.119 0-7.071l11-11c1.951-1.952 5.119-1.952 7.07 0l11 11c1.953 1.953 1.953 5.119 0 7.071l-11 11c-.975.975-2.255 1.464-3.535 1.464zm-3.928-16 3.929 3.929 3.929-3.929-3.929-3.929z" fill="#6583fe"/></g><g><path d="m417.708 166.97c-1.326 0-2.598-.527-3.535-1.464l-11.293-11.292c-.939-.938-1.465-2.21-1.465-3.536s.526-2.598 1.465-3.536l11.293-11.292c.938-.938 2.209-1.464 3.535-1.464 1.326 0 2.598.527 3.535 1.464l11.292 11.292c1.953 1.953 1.953 5.119 0 7.071l-11.292 11.292c-.937.938-2.209 1.465-3.535 1.465zm-4.222-16.293 4.222 4.221 4.221-4.221-4.221-4.221z" fill="#6583fe"/></g><g><path d="m434.94 209.42c-7.175 0-13.012-5.837-13.012-13.012s5.837-13.012 13.012-13.012 13.012 5.837 13.012 13.012-5.837 13.012-13.012 13.012zm0-16.024c-1.661 0-3.012 1.351-3.012 3.012s1.351 3.012 3.012 3.012 3.012-1.351 3.012-3.012-1.35-3.012-3.012-3.012z" fill="#6583fe"/></g><g><path d="m85.716 327.844c-7.175 0-13.012-5.837-13.012-13.012s5.837-13.012 13.012-13.012 13.012 5.837 13.012 13.012c-.001 7.174-5.837 13.012-13.012 13.012zm0-16.024c-1.661 0-3.012 1.351-3.012 3.012s1.351 3.012 3.012 3.012 3.012-1.351 3.012-3.012c-.001-1.661-1.352-3.012-3.012-3.012z" fill="#6583fe"/></g></g></g></svg>